<svg viewBox="0 0 700 400" xmlns="http://www.w3.org/2000/svg" preserveAspectRatio="xMinYMin meet">
  <defs>
    <style>
      .chart-title { font-family: Inter, -apple-system, BlinkMacSystemFont, 'Segoe UI', sans-serif; font-size: 18px; font-weight: 600; fill: #111111; }
      .chart-label { font-family: Inter, -apple-system, BlinkMacSystemFont, 'Segoe UI', sans-serif; font-size: 13px; fill: #111111; }
      .chart-value { font-family: Inter, -apple-system, BlinkMacSystemFont, 'Segoe UI', sans-serif; font-size: 13px; font-weight: 600; fill: #111111; }
      .chart-sublabel { font-family: Inter, -apple-system, BlinkMacSystemFont, 'Segoe UI', sans-serif; font-size: 11px; fill: #666666; }
    </style>
  </defs>

  <!-- Title -->
  <text x="20" y="30" class="chart-title">Coste mensual total (TCO a 5 años)</text>

  <!-- Legend -->
  <rect x="20" y="42" width="12" height="12" fill="#F5C518" rx="1"/>
  <text x="36" y="51" class="chart-sublabel">EV</text>

  <rect x="80" y="42" width="12" height="12" fill="#666666" rx="1"/>
  <text x="96" y="51" class="chart-sublabel">Gasolina</text>

  <!-- Tesla Model 3 / BMW 320i -->
  <text x="20" y="95" class="chart-label">Tesla Model 3</text>
  <text x="20" y="111" class="chart-sublabel">vs BMW 320i</text>

  <!-- Tesla bar -->
  <rect x="200" y="82" width="405" height="16" fill="#F5C518" rx="2"/>
  <text x="615" y="96" class="chart-value">€750</text>

  <!-- BMW bar -->
  <rect x="200" y="105" width="522" height="16" fill="#666666" rx="2"/>
  <text x="732" y="119" class="chart-value">€968</text>

  <!-- MG4 / VW Golf -->
  <text x="20" y="170" class="chart-label">MG4</text>
  <text x="20" y="186" class="chart-sublabel">vs VW Golf</text>

  <!-- MG4 bar -->
  <rect x="200" y="157" width="263" height="16" fill="#F5C518" rx="2"/>
  <text x="473" y="171" class="chart-value">€489</text>

  <!-- VW Golf bar -->
  <rect x="200" y="180" width="392" height="16" fill="#666666" rx="2"/>
  <text x="602" y="194" class="chart-value">€727</text>

  <!-- ë-C3 / SEAT Ibiza -->
  <text x="20" y="245" class="chart-label">ë-C3</text>
  <text x="20" y="261" class="chart-sublabel">vs SEAT Ibiza</text>

  <!-- ë-C3 bar -->
  <rect x="200" y="232" width="223" height="16" fill="#F5C518" rx="2"/>
  <text x="433" y="246" class="chart-value">€413</text>

  <!-- SEAT Ibiza bar -->
  <rect x="200" y="255" width="277" height="16" fill="#666666" rx="2"/>
  <text x="487" y="269" class="chart-value">€514</text>

  <!-- Axis line -->
  <line x1="200" y1="285" x2="760" y2="285" stroke="#E0E0E0" stroke-width="1"/>

  <!-- Scale labels -->
  <text x="200" y="305" class="chart-sublabel" text-anchor="middle">€0</text>
  <text x="360" y="305" class="chart-sublabel" text-anchor="middle">€300</text>
  <text x="520" y="305" class="chart-sublabel" text-anchor="middle">€600</text>
  <text x="680" y="305" class="chart-sublabel" text-anchor="middle">€900</text>

  <!-- Small grid lines -->
  <line x1="360" y1="80" x2="360" y2="280" stroke="#F5F5F5" stroke-width="1"/>
  <line x1="520" y1="80" x2="520" y2="280" stroke="#F5F5F5" stroke-width="1"/>
  <line x1="680" y1="80" x2="680" y2="280" stroke="#F5F5F5" stroke-width="1"/>

  <!-- Footer note -->
  <text x="20" y="340" class="chart-sublabel">Los costes incluyen amortización, combustible/electricidad, seguro, mantenimiento e impuestos</text>
  <text x="20" y="355" class="chart-sublabel">Cálculo basado en 15.000 km/año durante 5 años</text>

</svg>