<svg viewBox="0 0 700 420" xmlns="http://www.w3.org/2000/svg" width="700" height="420">
  <defs>
    <style>
      .chart-title { font-family: 'Inter', system-ui, sans-serif; font-size: 16px; font-weight: 500; fill: #111111; }
      .axis-label { font-family: 'Inter', system-ui, sans-serif; font-size: 12px; fill: #666666; }
      .data-label { font-family: 'Inter', system-ui, sans-serif; font-size: 11px; font-weight: 500; fill: #111111; }
      .savings-label { font-family: 'Inter', system-ui, sans-serif; font-size: 13px; font-weight: 600; }
      .grid-line { stroke: #E8E8E6; stroke-width: 0.8; }
      .ev-line { stroke: #F5C518; stroke-width: 3; fill: none; stroke-linecap: round; stroke-linejoin: round; }
      .ice-line { stroke: #666666; stroke-width: 3; fill: none; stroke-linecap: round; stroke-linejoin: round; }
    </style>
  </defs>

  <!-- Title -->
  <text x="350" y="28" class="chart-title" text-anchor="middle">TCO acumulado: Citroën ë-C3 vs C3 (escenario base, 5 años)</text>

  <!--
    Data (base scenario: 15.000 km/año, carga mixta €0,186/kWh, SP95 €1,55/L):
    ë-C3 initial: €19.300 (€23.800 - €4.500 subsidy)
    ë-C3 annual operating: €1.279,6 (energy €443,6 + maint €300 + ins €500 + IVTM €20 + ITV €16)
    C3 initial: €17.011 (€16.240 + €771 IEDMT)
    C3 annual operating: €2.330 (energy €1.302 + maint €550 + ins €400 + IVTM €60 + ITV €18)

    Year 0: ë-C3 = €19.300 / C3 = €17.011
    Year 1: €20.580 / €19.341
    Year 2: €21.860 / €21.671
    Year 3: €23.139 / €24.001
    Year 4: €24.419 / €26.331
    Year 5: €25.699 / €28.661

    Crossover between year 2 and 3 (at ~2.82 years)
    Savings at year 5: €2.962

    Chart area: x=80..640 (560px for 5 years = 112px/year)
    Y scale: €0..€30k. Chart y=60..350 (290px). px per €1k = 290/30 = 9.667
  -->

  <!-- Horizontal grid lines at €5k intervals (0 to 30k) -->
  <line x1="80" y1="350" x2="640" y2="350" class="grid-line"/>
  <line x1="80" y1="301.67" x2="640" y2="301.67" class="grid-line"/>
  <line x1="80" y1="253.33" x2="640" y2="253.33" class="grid-line"/>
  <line x1="80" y1="205" x2="640" y2="205" class="grid-line"/>
  <line x1="80" y1="156.67" x2="640" y2="156.67" class="grid-line"/>
  <line x1="80" y1="108.33" x2="640" y2="108.33" class="grid-line"/>
  <line x1="80" y1="60" x2="640" y2="60" class="grid-line"/>

  <!-- Y-axis labels -->
  <text x="72" y="356" class="axis-label" text-anchor="end">€0</text>
  <text x="72" y="307" class="axis-label" text-anchor="end">€5k</text>
  <text x="72" y="259" class="axis-label" text-anchor="end">€10k</text>
  <text x="72" y="211" class="axis-label" text-anchor="end">€15k</text>
  <text x="72" y="162" class="axis-label" text-anchor="end">€20k</text>
  <text x="72" y="114" class="axis-label" text-anchor="end">€25k</text>
  <text x="72" y="66" class="axis-label" text-anchor="end">€30k</text>

  <!-- X-axis labels (years 0-5) -->
  <text x="80" y="375" class="axis-label" text-anchor="middle">Año 0</text>
  <text x="192" y="375" class="axis-label" text-anchor="middle">Año 1</text>
  <text x="304" y="375" class="axis-label" text-anchor="middle">Año 2</text>
  <text x="416" y="375" class="axis-label" text-anchor="middle">Año 3</text>
  <text x="528" y="375" class="axis-label" text-anchor="middle">Año 4</text>
  <text x="640" y="375" class="axis-label" text-anchor="middle">Año 5</text>

  <!-- Axes -->
  <line x1="80" y1="350" x2="640" y2="350" stroke="#111111" stroke-width="1.5"/>
  <line x1="80" y1="60" x2="80" y2="350" stroke="#111111" stroke-width="1.5"/>

  <!--
    Pixel positions (y = 350 - value_in_k * 9.667):
    ë-C3: 19.3k→163.4  20.58k→151.0  21.86k→138.7  23.14k→126.3  24.42k→113.9  25.70k→101.6
    C3:   17.01k→185.6  19.34k→163.0  21.67k→140.5  24.00k→118.0  26.33k→95.5   28.66k→73.0
  -->

  <!-- Shaded area between curves (from crossover ~year 2.8 onwards) -->
  <polygon points="397,128.0 416,126.3 528,113.9 640,101.6 640,73.0 528,95.5 416,118.0 397,121.3"
           fill="#F5C518" opacity="0.15"/>

  <!-- ë-C3 line (EV - Yellow) -->
  <polyline points="80,163.4 192,151.0 304,138.7 416,126.3 528,113.9 640,101.6" class="ev-line"/>

  <!-- C3 line (ICE - Gray) -->
  <polyline points="80,185.6 192,163.0 304,140.5 416,118.0 528,95.5 640,73.0" class="ice-line"/>

  <!-- Data point markers ë-C3 -->
  <circle cx="80" cy="163.4" r="4" fill="#F5C518"/>
  <circle cx="192" cy="151.0" r="4" fill="#F5C518"/>
  <circle cx="304" cy="138.7" r="4" fill="#F5C518"/>
  <circle cx="416" cy="126.3" r="4" fill="#F5C518"/>
  <circle cx="528" cy="113.9" r="4" fill="#F5C518"/>
  <circle cx="640" cy="101.6" r="4" fill="#F5C518"/>

  <!-- Data point markers C3 -->
  <circle cx="80" cy="185.6" r="4" fill="#666666"/>
  <circle cx="192" cy="163.0" r="4" fill="#666666"/>
  <circle cx="304" cy="140.5" r="4" fill="#666666"/>
  <circle cx="416" cy="118.0" r="4" fill="#666666"/>
  <circle cx="528" cy="95.5" r="4" fill="#666666"/>
  <circle cx="640" cy="73.0" r="4" fill="#666666"/>

  <!-- Crossover annotation (~year 2.8) -->
  <line x1="397" y1="122" x2="397" y2="135" stroke="#F5C518" stroke-width="1.5" stroke-dasharray="4,3"/>
  <text x="397" y="145" class="axis-label" fill="#F5C518" text-anchor="middle" font-weight="600" font-size="10">Cruce ~año 3</text>

  <!-- Start labels -->
  <text x="85" y="158" class="data-label" fill="#F5C518" font-weight="600">ë-C3 €19,3k</text>
  <text x="85" y="198" class="data-label" fill="#666666" font-weight="600">C3 €17,0k</text>

  <!-- End labels -->
  <text x="635" y="96" class="data-label" fill="#F5C518" font-weight="600" text-anchor="end">ë-C3 €25,7k</text>
  <text x="635" y="67" class="data-label" fill="#666666" font-weight="600" text-anchor="end">C3 €28,7k</text>

  <!-- Savings annotation -->
  <rect x="465" y="215" width="140" height="60" fill="#F5C518" opacity="0.12" rx="4"/>
  <text x="535" y="235" class="savings-label" fill="#F5C518" text-anchor="middle">Ahorro a 5 años</text>
  <text x="535" y="260" style="font-family: 'Inter', system-ui, sans-serif; font-size: 18px; font-weight: 700; fill: #F5C518; text-anchor: middle;">€2.963</text>

  <!-- Legend -->
  <line x1="220" y1="330" x2="240" y2="330" class="ev-line"/>
  <text x="245" y="334" class="data-label" fill="#111111">ë-C3 (Eléctrico)</text>
  <line x1="420" y1="330" x2="440" y2="330" class="ice-line"/>
  <text x="445" y="334" class="data-label" fill="#111111">C3 (Gasolina)</text>

  <!-- Source -->
  <text x="350" y="410" class="axis-label" text-anchor="middle" font-size="10">Fuente: cálculos enchufa2, abril 2026 · Escenario base: 15.000 km/año, carga mixta (80 % casa + 20 % rápida)</text>
</svg>
