<svg viewBox="0 0 700 420" xmlns="http://www.w3.org/2000/svg">
  <defs>
    <style>
      text { font-family: Inter, -apple-system, BlinkMacSystemFont, "Segoe UI", sans-serif; }
      .title { font-size: 18px; font-weight: 600; fill: #111111; }
      .label { font-size: 13px; fill: #111111; font-weight: 500; }
      .value { font-size: 12px; fill: #666666; font-weight: 500; }
    </style>
  </defs>

  <!-- White background -->
  <rect width="700" height="420" fill="#FAFAF8"/>

  <!-- Title -->
  <text x="40" y="35" class="title">Coste por 100 km según tipo de carga</text>

  <!-- Horizontal grid lines -->
  <line x1="280" y1="70" x2="680" y2="70" stroke="#E8E8E6" stroke-width="1"/>
  <line x1="280" y1="110" x2="680" y2="110" stroke="#E8E8E6" stroke-width="1"/>
  <line x1="280" y1="150" x2="680" y2="150" stroke="#E8E8E6" stroke-width="1"/>
  <line x1="280" y1="190" x2="680" y2="190" stroke="#E8E8E6" stroke-width="1"/>
  <line x1="280" y1="230" x2="680" y2="230" stroke="#E8E8E6" stroke-width="1"/>
  <line x1="280" y1="270" x2="680" y2="270" stroke="#E8E8E6" stroke-width="1"/>

  <!-- Left border for bars -->
  <line x1="280" y1="65" x2="280" y2="290" stroke="#E8E8E6" stroke-width="1"/>

  <!-- Data bars (max width = 390px for €10,08 baseline) -->

  <!-- 1. EV — Tarifa EV (€0,05/kWh): €0,80 -->
  <rect x="280" y="70" width="31" height="32" fill="#F5C518" rx="3"/>
  <text x="40" y="91" class="label">EV — Tarifa EV (€0,05/kWh)</text>
  <text x="320" y="91" class="value">€0,80</text>

  <!-- 2. EV — PVPC valle (€0,09/kWh): €1,44 -->
  <rect x="280" y="110" width="56" height="32" fill="#F5C518" rx="3"/>
  <text x="40" y="131" class="label">EV — PVPC valle (€0,09/kWh)</text>
  <text x="345" y="131" class="value">€1,44</text>

  <!-- 3. EV — Tarifa fija (€0,15/kWh): €2,40 -->
  <rect x="280" y="150" width="93" height="32" fill="#F5C518" rx="3"/>
  <text x="40" y="171" class="label">EV — Tarifa fija (€0,15/kWh)</text>
  <text x="382" y="171" class="value">€2,40</text>

  <!-- 4. EV — Carga mixta (80/20): €2,72 -->
  <rect x="280" y="190" width="105" height="32" fill="#F5C518" rx="3"/>
  <text x="40" y="211" class="label">EV — Carga mixta (80/20)</text>
  <text x="394" y="211" class="value">€2,72</text>

  <!-- 5. EV — 100% carga rápida: €6,40 -->
  <rect x="280" y="230" width="247" height="32" fill="#F5C518" rx="3"/>
  <text x="40" y="251" class="label">EV — 100% carga rápida</text>
  <text x="536" y="251" class="value">€6,40</text>

  <!-- 6. Gasolina SP95: €10,08 -->
  <rect x="280" y="270" width="390" height="32" fill="#444444" rx="3"/>
  <text x="40" y="291" class="label">Gasolina SP95</text>
  <text x="679" y="291" class="value">€10,08</text>

</svg>