<svg viewBox="0 0 700 420" xmlns="http://www.w3.org/2000/svg" width="700" height="420">
  <!-- Define styles -->
  <defs>
    <style>
      .chart-title { font-family: 'Inter', system-ui, sans-serif; font-size: 16px; font-weight: 500; fill: #111111; }
      .axis-label { font-family: 'Inter', system-ui, sans-serif; font-size: 12px; fill: #666666; }
      .data-label { font-family: 'Inter', system-ui, sans-serif; font-size: 11px; font-weight: 500; fill: #111111; }
      .savings-label { font-family: 'Inter', system-ui, sans-serif; font-size: 13px; font-weight: 600; }
      .grid-line { stroke: #E8E8E6; stroke-width: 0.8; }
      .ev-line { stroke: #F5C518; stroke-width: 3; fill: none; stroke-linecap: round; stroke-linejoin: round; }
      .ice-line { stroke: #666666; stroke-width: 3; fill: none; stroke-linecap: round; stroke-linejoin: round; }
    </style>
  </defs>

  <!-- Title -->
  <text x="350" y="28" class="chart-title" text-anchor="middle">TCO acumulado: MG4 vs Golf (5 años)</text>

  <!-- Horizontal grid lines at €10k intervals -->
  <line x1="80" y1="350" x2="640" y2="350" class="grid-line"/>
  <line x1="80" y1="292" x2="640" y2="292" class="grid-line"/>
  <line x1="80" y1="234" x2="640" y2="234" class="grid-line"/>
  <line x1="80" y1="176" x2="640" y2="176" class="grid-line"/>
  <line x1="80" y1="118" x2="640" y2="118" class="grid-line"/>
  <line x1="80" y1="60" x2="640" y2="60" class="grid-line"/>

  <!-- Vertical grid lines at each year -->
  <line x1="80" y1="60" x2="80" y2="350" class="grid-line"/>
  <line x1="192" y1="60" x2="192" y2="350" class="grid-line"/>
  <line x1="304" y1="60" x2="304" y2="350" class="grid-line"/>
  <line x1="416" y1="60" x2="416" y2="350" class="grid-line"/>
  <line x1="528" y1="60" x2="528" y2="350" class="grid-line"/>
  <line x1="640" y1="60" x2="640" y2="350" class="grid-line"/>

  <!-- Y-axis labels (€) -->
  <text x="72" y="356" class="axis-label" text-anchor="end">€0</text>
  <text x="72" y="298" class="axis-label" text-anchor="end">€10k</text>
  <text x="72" y="240" class="axis-label" text-anchor="end">€20k</text>
  <text x="72" y="182" class="axis-label" text-anchor="end">€30k</text>
  <text x="72" y="124" class="axis-label" text-anchor="end">€40k</text>
  <text x="72" y="66" class="axis-label" text-anchor="end">€50k</text>

  <!-- X-axis labels (years) -->
  <text x="80" y="375" class="axis-label" text-anchor="middle">Año 0</text>
  <text x="192" y="375" class="axis-label" text-anchor="middle">Año 1</text>
  <text x="304" y="375" class="axis-label" text-anchor="middle">Año 2</text>
  <text x="416" y="375" class="axis-label" text-anchor="middle">Año 3</text>
  <text x="528" y="375" class="axis-label" text-anchor="middle">Año 4</text>
  <text x="640" y="375" class="axis-label" text-anchor="middle">Año 5</text>

  <!-- Axes -->
  <line x1="80" y1="350" x2="640" y2="350" stroke="#111111" stroke-width="1.5"/>
  <line x1="80" y1="60" x2="80" y2="350" stroke="#111111" stroke-width="1.5"/>

  <!-- Shaded area between curves (light yellow fill) -->
  <polygon points="80,189.83 192,181.61 304,173.38 416,165.16 528,156.70 640,148.25 640,98.09 528,115.58 416,133.07 304,150.29 192,167.52 80,184.75"
           fill="#F5C518" opacity="0.12"/>

  <!-- MG4 line (EV - Yellow) -->
  <polyline points="80,189.83 192,181.61 304,173.38 416,165.16 528,156.70 640,148.25" class="ev-line"/>

  <!-- Golf line (ICE - Gray) -->
  <polyline points="80,184.75 192,167.52 304,150.29 416,133.07 528,115.58 640,98.09" class="ice-line"/>

  <!-- Data point markers for MG4 -->
  <circle cx="80" cy="189.83" r="4" fill="#F5C518"/>
  <circle cx="192" cy="181.61" r="4" fill="#F5C518"/>
  <circle cx="304" cy="173.38" r="4" fill="#F5C518"/>
  <circle cx="416" cy="165.16" r="4" fill="#F5C518"/>
  <circle cx="528" cy="156.70" r="4" fill="#F5C518"/>
  <circle cx="640" cy="148.25" r="4" fill="#F5C518"/>

  <!-- Data point markers for Golf -->
  <circle cx="80" cy="184.75" r="4" fill="#666666"/>
  <circle cx="192" cy="167.52" r="4" fill="#666666"/>
  <circle cx="304" cy="150.29" r="4" fill="#666666"/>
  <circle cx="416" cy="133.07" r="4" fill="#666666"/>
  <circle cx="528" cy="115.58" r="4" fill="#666666"/>
  <circle cx="640" cy="98.09" r="4" fill="#666666"/>

  <!-- Start labels (Year 0) — stagger to avoid overlap since values are close -->
  <text x="85" y="205" class="data-label" fill="#F5C518" font-weight="600">MG4 €27,6k</text>
  <text x="85" y="178" class="data-label" fill="#666666" font-weight="600">Golf €28,5k</text>

  <!-- End labels (Year 5) -->
  <text x="635" y="143" class="data-label" fill="#F5C518" font-weight="600" text-anchor="end">MG4 €34,8k</text>
  <text x="635" y="92" class="data-label" fill="#666666" font-weight="600" text-anchor="end">Golf €43,4k</text>

  <!-- Savings annotation box -->
  <rect x="280" y="250" width="140" height="60" fill="#F5C518" opacity="0.12" rx="4" ry="4"/>
  <text x="350" y="270" class="savings-label" fill="#F5C518" text-anchor="middle">Ahorro</text>
  <text x="350" y="295" style="font-family: 'Inter', system-ui, sans-serif; font-size: 18px; font-weight: 700; fill: #F5C518; text-anchor: middle;">€8.647</text>

  <!-- Legend -->
  <line x1="270" y1="330" x2="290" y2="330" class="ev-line"/>
  <text x="295" y="334" class="data-label" fill="#111111">MG4 (Eléctrico)</text>

  <line x1="470" y1="330" x2="490" y2="330" class="ice-line"/>
  <text x="495" y="334" class="data-label" fill="#111111">Golf (Gasolina)</text>

  <!-- Source attribution -->
  <text x="350" y="410" class="axis-label" text-anchor="middle" font-size="10">Fuente: cálculos enchufa2, abril 2026</text>
</svg>
