<svg viewBox="0 0 700 420" xmlns="http://www.w3.org/2000/svg" width="700" height="420">
  <defs>
    <style>
      .chart-title { font-family: 'Inter', system-ui, sans-serif; font-size: 16px; font-weight: 500; fill: #111111; }
      .axis-label { font-family: 'Inter', system-ui, sans-serif; font-size: 12px; fill: #666666; }
      .data-label { font-family: 'Inter', system-ui, sans-serif; font-size: 11px; font-weight: 500; fill: #111111; }
      .savings-label { font-family: 'Inter', system-ui, sans-serif; font-size: 13px; font-weight: 600; }
      .grid-line { stroke: #E8E8E6; stroke-width: 0.8; }
      .ev-line { stroke: #F5C518; stroke-width: 3; fill: none; stroke-linecap: round; stroke-linejoin: round; }
      .ice-line { stroke: #666666; stroke-width: 3; fill: none; stroke-linecap: round; stroke-linejoin: round; }
    </style>
  </defs>

  <!-- Title -->
  <text x="350" y="28" class="chart-title" text-anchor="middle">TCO acumulado: ë-C3 vs C3 (7 años, tarifa EV)</text>

  <!-- Horizontal grid lines at €5k intervals (0 to 35k) -->
  <line x1="80" y1="350" x2="640" y2="350" class="grid-line"/>
  <line x1="80" y1="308.57" x2="640" y2="308.57" class="grid-line"/>
  <line x1="80" y1="267.14" x2="640" y2="267.14" class="grid-line"/>
  <line x1="80" y1="225.71" x2="640" y2="225.71" class="grid-line"/>
  <line x1="80" y1="184.29" x2="640" y2="184.29" class="grid-line"/>
  <line x1="80" y1="142.86" x2="640" y2="142.86" class="grid-line"/>
  <line x1="80" y1="101.43" x2="640" y2="101.43" class="grid-line"/>
  <line x1="80" y1="60" x2="640" y2="60" class="grid-line"/>

  <!-- Y-axis labels -->
  <text x="72" y="356" class="axis-label" text-anchor="end">€0</text>
  <text x="72" y="314" class="axis-label" text-anchor="end">€5k</text>
  <text x="72" y="273" class="axis-label" text-anchor="end">€10k</text>
  <text x="72" y="231" class="axis-label" text-anchor="end">€15k</text>
  <text x="72" y="190" class="axis-label" text-anchor="end">€20k</text>
  <text x="72" y="148" class="axis-label" text-anchor="end">€25k</text>
  <text x="72" y="107" class="axis-label" text-anchor="end">€30k</text>
  <text x="72" y="66" class="axis-label" text-anchor="end">€35k</text>

  <!-- X-axis labels (years 0-7) -->
  <text x="80" y="375" class="axis-label" text-anchor="middle">Año 0</text>
  <text x="160" y="375" class="axis-label" text-anchor="middle">Año 1</text>
  <text x="240" y="375" class="axis-label" text-anchor="middle">Año 2</text>
  <text x="320" y="375" class="axis-label" text-anchor="middle">Año 3</text>
  <text x="400" y="375" class="axis-label" text-anchor="middle">Año 4</text>
  <text x="480" y="375" class="axis-label" text-anchor="middle">Año 5</text>
  <text x="560" y="375" class="axis-label" text-anchor="middle">Año 6</text>
  <text x="640" y="375" class="axis-label" text-anchor="middle">Año 7</text>

  <!-- Axes -->
  <line x1="80" y1="350" x2="640" y2="350" stroke="#111111" stroke-width="1.5"/>
  <line x1="80" y1="60" x2="80" y2="350" stroke="#111111" stroke-width="1.5"/>

  <!-- Shaded area between curves (from crossover at year 3 onwards) -->
  <polygon points="320,166.56 400,158.39 480,150.21 560,142.04 640,133.87 640,98.64 560,114.57 480,130.50 400,146.44 320,162.37"
           fill="#F5C518" opacity="0.15"/>

  <!-- ë-C3 line (EV - Yellow) -->
  <polyline points="80,190.09 160,182.24 240,174.40 320,166.56 400,158.39 480,150.21 560,142.04 640,133.87" class="ev-line"/>

  <!-- C3 line (ICE - Gray) -->
  <polyline points="80,209.05 160,193.49 240,177.93 320,162.37 400,146.44 480,130.50 560,114.57 640,98.64" class="ice-line"/>

  <!-- Data point markers ë-C3 -->
  <circle cx="80" cy="190.09" r="4" fill="#F5C518"/>
  <circle cx="160" cy="182.24" r="4" fill="#F5C518"/>
  <circle cx="240" cy="174.40" r="4" fill="#F5C518"/>
  <circle cx="320" cy="166.56" r="4" fill="#F5C518"/>
  <circle cx="400" cy="158.39" r="4" fill="#F5C518"/>
  <circle cx="480" cy="150.21" r="4" fill="#F5C518"/>
  <circle cx="560" cy="142.04" r="4" fill="#F5C518"/>
  <circle cx="640" cy="133.87" r="4" fill="#F5C518"/>

  <!-- Data point markers C3 -->
  <circle cx="80" cy="209.05" r="4" fill="#666666"/>
  <circle cx="160" cy="193.49" r="4" fill="#666666"/>
  <circle cx="240" cy="177.93" r="4" fill="#666666"/>
  <circle cx="320" cy="162.37" r="4" fill="#666666"/>
  <circle cx="400" cy="146.44" r="4" fill="#666666"/>
  <circle cx="480" cy="130.50" r="4" fill="#666666"/>
  <circle cx="560" cy="114.57" r="4" fill="#666666"/>
  <circle cx="640" cy="98.64" r="4" fill="#666666"/>

  <!-- Crossover annotation at year 3 -->
  <line x1="320" y1="162" x2="320" y2="172" stroke="#F5C518" stroke-width="1.5" stroke-dasharray="4,3"/>
  <text x="320" y="180" class="axis-label" fill="#F5C518" text-anchor="middle" font-weight="600" font-size="10">Cruce año 3</text>

  <!-- Start labels -->
  <text x="85" y="186" class="data-label" fill="#F5C518" font-weight="600">ë-C3 €19,3k</text>
  <text x="85" y="220" class="data-label" fill="#666666" font-weight="600">C3 €17,0k</text>

  <!-- End labels -->
  <text x="635" y="128" class="data-label" fill="#F5C518" font-weight="600" text-anchor="end">ë-C3 €26,1k</text>
  <text x="635" y="93" class="data-label" fill="#666666" font-weight="600" text-anchor="end">C3 €30,3k</text>

  <!-- Savings annotation -->
  <rect x="420" y="220" width="140" height="60" fill="#F5C518" opacity="0.12" rx="4"/>
  <text x="490" y="240" class="savings-label" fill="#F5C518" text-anchor="middle">Ahorro</text>
  <text x="490" y="265" style="font-family: 'Inter', system-ui, sans-serif; font-size: 18px; font-weight: 700; fill: #F5C518; text-anchor: middle;">€4.252</text>

  <!-- Legend -->
  <line x1="220" y1="330" x2="240" y2="330" class="ev-line"/>
  <text x="245" y="334" class="data-label" fill="#111111">ë-C3 (Eléctrico)</text>
  <line x1="420" y1="330" x2="440" y2="330" class="ice-line"/>
  <text x="445" y="334" class="data-label" fill="#111111">C3 (Gasolina)</text>

  <!-- Source -->
  <text x="350" y="410" class="axis-label" text-anchor="middle" font-size="10">Fuente: cálculos enchufa2, abril 2026 · Escenario A: 10.000 km/año, tarifa EV nocturna</text>
</svg>
